<?xml version="1.0" encoding="UTF-8" standalone="no"?>
<svg
   xmlns:dc="http://purl.org/dc/elements/1.1/"
   xmlns:cc="http://creativecommons.org/ns#"
   xmlns:rdf="http://www.w3.org/1999/02/22-rdf-syntax-ns#"
   xmlns:svg="http://www.w3.org/2000/svg"
   xmlns="http://www.w3.org/2000/svg"
   xmlns:sodipodi="http://sodipodi.sourceforge.net/DTD/sodipodi-0.dtd"
   xmlns:inkscape="http://www.inkscape.org/namespaces/inkscape"
   version="1.1"
   id="Capa_1"
   x="0px"
   y="0px"
   viewBox="0 0 433.907 433.907"
   style="enable-background:new 0 0 433.907 433.907;"
   xml:space="preserve"
   sodipodi:docname="logo.svg"
   inkscape:version="1.0.2 (e86c870879, 2021-01-15, custom)"
   inkscape:export-filename="C:\Users\Andreas\source\repos\GeoRaptor.Net\media\logo.png"
   inkscape:export-xdpi="113.23077"
   inkscape:export-ydpi="113.23077"><metadata
   id="metadata55"><rdf:RDF><cc:Work
       rdf:about=""><dc:format>image/svg+xml</dc:format><dc:type
         rdf:resource="http://purl.org/dc/dcmitype/StillImage" /></cc:Work></rdf:RDF></metadata><defs
   id="defs53" /><sodipodi:namedview
   pagecolor="#ffffff"
   bordercolor="#666666"
   borderopacity="1"
   objecttolerance="10"
   gridtolerance="10"
   guidetolerance="10"
   inkscape:pageopacity="0"
   inkscape:pageshadow="2"
   inkscape:window-width="3840"
   inkscape:window-height="2050"
   id="namedview51"
   showgrid="false"
   inkscape:zoom="0.5807696"
   inkscape:cx="560.73544"
   inkscape:cy="-267.09859"
   inkscape:window-x="2148"
   inkscape:window-y="764"
   inkscape:window-maximized="1"
   inkscape:current-layer="XMLID_23_" />
<g
   id="XMLID_23_">
	<rect
   id="XMLID_24_"
   x="109.949"
   y="139.794"
   style="fill:#81a4cd;fill-opacity:1"
   width="30"
   height="30.051" />
	<path
   id="XMLID_25_"
   style="fill:#81a4cd;fill-opacity:1"
   d="M55,139.794c-13.785,0-25-11.215-25-25s11.215-25,25-25h24.949v-30H55   c-30.327,0-55,24.673-55,55s24.673,55.051,55,55.051h24.949v-30.051H55z" />
	<rect
   id="XMLID_26_"
   x="79.949"
   y="59.794"
   style="fill:#f17300;fill-opacity:1"
   width="90.051"
   height="30" />
	<polygon
   id="XMLID_27_"
   style="fill:#81a4cd;fill-opacity:1"
   points="170,139.794 170,169.845 209.719,189.845 209.719,139.794  " />
	<path
   id="XMLID_28_"
   style="fill:#81a4cd;fill-opacity:1"
   d="M403.792,226.454v75h30.113v-130C433.905,192.291,421.345,214.072,403.792,226.454z" />
	<path
   id="XMLID_29_"
   style="fill:#81a4cd;fill-opacity:1"
   d="M350.242,244.802l-57.345,16.004c-3.51,31.556-24.556,57.803-53.177,68.798v101.85   h30v-96.29c46.232,0,83.71-37.479,83.71-83.71v-3.157C352.278,247.217,351.213,246.048,350.242,244.802z" />
	<rect
   id="XMLID_30_"
   x="269.719"
   y="401.454"
   style="fill:#f17300;fill-opacity:1"
   width="30"
   height="30" />
	<rect
   id="XMLID_31_"
   x="269.77"
   y="139.794"
   style="fill:#79443b;fill-opacity:1"
   width="30.051"
   height="50.051" />
	<rect
   id="XMLID_71_"
   x="209.719"
   y="139.794"
   style="fill:#79443b;fill-opacity:1"
   width="30.051"
   height="50.051" />
	<path
   id="XMLID_85_"
   style="fill:#dbe4ee;fill-opacity:1"
   d="M343.905,226.419v-10.995l-50.476,14.087v21.942c0,3.163-0.191,6.28-0.533,9.352   l57.345-16.004C346.279,239.713,343.905,233.332,343.905,226.419z" />
	<g
   id="XMLID_86_">
		<path
   id="XMLID_87_"
   style="fill:#FFE9B8;"
   d="M403.792,226.454C403.624,226.572,403.962,226.336,403.792,226.454L403.792,226.454    z" />
		<path
   id="XMLID_88_"
   style="fill:#dbe4ee;fill-opacity:1"
   d="M403.905,69.787v101.667c0,13.994-12.745,30.782-26.225,34.545l-3.781,1.055    l-0.003,19.429c0.008-0.029,29.896-0.029,29.896-0.029c17.552-12.381,30.113-34.163,30.113-55V69.787H403.905z" />
	</g>
	<path
   id="XMLID_89_"
   style="fill:#3e7cb1;fill-opacity:1"
   d="M383.91,2.454H300v40l73.905,27.333v70.007h-74.084v50.051H269.77v-50.051h-30   v50.051h-29.958l-0.093,24.877v90.441h-30v126.29h30v-96.29c10.576,0,20.684-1.981,30-5.56   c28.622-10.995,49.667-37.242,53.177-68.798c0.342-3.072,0.533-6.189,0.533-9.352v-21.942l50.476-14.087v10.995   c0,6.913,2.374,13.294,6.336,18.382c0.971,1.247,2.037,2.416,3.188,3.495c5.37,5.035,12.571,8.134,20.463,8.134v-0.05l0.013,0.05   v45.023h29.887v-75h-29.887c-0.008,0.029-0.005-19.4-0.005-19.4l3.781-1.055c13.479-3.763,26.225-20.551,26.225-34.545V69.787   h29.998l0.004-17.333C433.909,24.954,411.41,2.454,383.91,2.454z" />
	<rect
   id="XMLID_90_"
   x="139.949"
   y="139.794"
   style="fill:#f17300;fill-opacity:1"
   width="30.051"
   height="30.051" />
	<rect
   id="XMLID_91_"
   x="79.949"
   y="139.794"
   style="fill:#f17300;fill-opacity:1"
   width="30"
   height="30.051" />
	<rect
   id="XMLID_92_"
   x="209.719"
   y="401.454"
   style="fill:#79443b;fill-opacity:1"
   width="30"
   height="30" />
</g>
<g
   id="g20">
</g>
<g
   id="g22">
</g>
<g
   id="g24">
</g>
<g
   id="g26">
</g>
<g
   id="g28">
</g>
<g
   id="g30">
</g>
<g
   id="g32">
</g>
<g
   id="g34">
</g>
<g
   id="g36">
</g>
<g
   id="g38">
</g>
<g
   id="g40">
</g>
<g
   id="g42">
</g>
<g
   id="g44">
</g>
<g
   id="g46">
</g>
<g
   id="g48">
</g>
</svg>
